{"header":{"keySignatures":[{"key":"C","scale":"major","ticks":0}],"meta":[{"ticks":0,"type":"portPrefix"}],"name":"","ppq":480,"tempos":[{"bpm":120,"ticks":0}],"timeSignatures":[{"ticks":0,"timeSignature":[4,4],"measures":0}]},"tracks":[{"channel":0,"controlChanges":{"7":[{"number":7,"ticks":0,"time":0,"value":0.7874015748031497}],"10":[{"number":10,"ticks":0,"time":0,"value":0.5039370078740157}],"91":[{"number":91,"ticks":0,"time":0,"value":0}],"93":[{"number":93,"ticks":0,"time":0,"value":0}],"121":[{"number":121,"ticks":0,"time":0,"value":0}]},"pitchBends":[],"instrument":{"family":"piano","name":"acoustic grand piano","number":0},"name":"","notes":[{"duration":0.4739583333333333,"durationTicks":455,"midi":64,"name":"E4","ticks":0,"time":0,"velocity":0.6299212598425197},{"duration":0.47395833333333337,"durationTicks":455,"midi":64,"name":"E4","ticks":480,"time":0.5,"velocity":0.6299212598425197},{"duration":0.47395833333333326,"durationTicks":455,"midi":65,"name":"F4","ticks":960,"time":1,"velocity":0.6299212598425197},{"duration":0.47395833333333326,"durationTicks":455,"midi":67,"name":"G4","ticks":1440,"time":1.5,"velocity":0.6299212598425197},{"duration":0.4739583333333335,"durationTicks":455,"midi":67,"name":"G4","ticks":1920,"time":2,"velocity":0.6299212598425197},{"duration":0.4739583333333335,"durationTicks":455,"midi":65,"name":"F4","ticks":2400,"time":2.5,"velocity":0.6299212598425197},{"duration":0.4739583333333335,"durationTicks":455,"midi":64,"name":"E4","ticks":2880,"time":3,"velocity":0.6299212598425197},{"duration":0.4739583333333335,"durationTicks":455,"midi":62,"name":"D4","ticks":3360,"time":3.5,"velocity":0.6299212598425197},{"duration":0.47395833333333304,"durationTicks":455,"midi":60,"name":"C4","ticks":3840,"time":4,"velocity":0.6299212598425197},{"duration":0.47395833333333304,"durationTicks":455,"midi":60,"name":"C4","ticks":4320,"time":4.5,"velocity":0.6299212598425197},{"duration":0.47395833333333304,"durationTicks":455,"midi":62,"name":"D4","ticks":4800,"time":5,"velocity":0.6299212598425197},{"duration":0.47395833333333304,"durationTicks":455,"midi":64,"name":"E4","ticks":5280,"time":5.5,"velocity":0.6299212598425197},{"duration":0.7114583333333337,"durationTicks":683,"midi":64,"name":"E4","ticks":5760,"time":6,"velocity":0.6299212598425197},{"duration":0.23645833333333321,"durationTicks":227,"midi":62,"name":"D4","ticks":6480,"time":6.75,"velocity":0.6299212598425197},{"duration":0.47395833333333304,"durationTicks":455,"midi":62,"name":"D4","ticks":6720,"time":7,"velocity":0.6299212598425197}]}]}